HIERARCHY
ROOT Pelvis
{
	OFFSET 0.000000 0.000000 0.000000
	CHANNELS 6 Xposition Yposition Zposition Xrotation Yrotation Zrotation
	JOINT LeftUpLeg_virtual
	{
		OFFSET 0.000000 0.000000 0.000000
		CHANNELS 3 Xrotation Yrotation Zrotation
		JOINT LeftUpLeg
		{
			OFFSET 8.479700 -4.795502 -0.379100
			CHANNELS 3 Xrotation Yrotation Zrotation
			JOINT LeftLeg
			{
				OFFSET 0.024144 -32.555107 0.112900
				CHANNELS 3 Xrotation Yrotation Zrotation
				JOINT LeftFoot
				{
					OFFSET -0.024144 -32.638630 -3.012600
					CHANNELS 3 Xrotation Yrotation Zrotation
					JOINT LeftToeBase
					{
						OFFSET 0.970200 -13.225400 11.864200
						CHANNELS 3 Xrotation Yrotation Zrotation
						End Site
						{
							OFFSET 0 0 0
						}
					}
				}
			}
		}
	}
	JOINT RightUpLeg_virtual
	{
		OFFSET 0.000000 0.000000 0.000000
		CHANNELS 3 Xrotation Yrotation Zrotation
		JOINT RightUpLeg
		{
			OFFSET -8.479700 -4.795502 -0.379100
			CHANNELS 3 Xrotation Yrotation Zrotation
			JOINT RightLeg
			{
				OFFSET -0.023144 -32.555092 0.112900
				CHANNELS 3 Xrotation Yrotation Zrotation
				JOINT RightFoot
				{
					OFFSET 0.023144 -32.638641 -3.012700
					CHANNELS 3 Xrotation Yrotation Zrotation
					JOINT RightToeBase
					{
						OFFSET -0.970200 -13.225400 11.864200
						CHANNELS 3 Xrotation Yrotation Zrotation
						End Site
						{
							OFFSET 0 0 0
						}
					}
				}
			}
		}
	}
	JOINT Hips_virtual
	{
		OFFSET 0.000000 0.000000 0.000000
		CHANNELS 3 Xrotation Yrotation Zrotation
		JOINT Hips
		{
			OFFSET -0.000000 -0.000000 -0.000000
			CHANNELS 3 Xrotation Yrotation Zrotation
			JOINT Spine
			{
				OFFSET 0.000000 7.722000 1.166200
				CHANNELS 3 Xrotation Yrotation Zrotation
				JOINT Spine1
				{
					OFFSET 0.000000 12.024101 0.248800
					CHANNELS 3 Xrotation Yrotation Zrotation
					JOINT Spine2
					{
						OFFSET 0.000000 11.502998 -0.491200
						CHANNELS 3 Xrotation Yrotation Zrotation
						JOINT Neck_virtual
						{
							OFFSET 0.000000 0.000000 0.000000
							CHANNELS 3 Xrotation Yrotation Zrotation
							JOINT Neck
							{
								OFFSET 0.000000 18.430702 -3.123100
								CHANNELS 3 Xrotation Yrotation Zrotation
								JOINT Head
								{
									OFFSET 0.000000 9.051102 1.034000
									CHANNELS 3 Xrotation Yrotation Zrotation
									End Site
									{
										OFFSET 0 0 0
									}
								}
							}
						}
						JOINT LeftShoulder_virtual
						{
							OFFSET 0.000000 0.000000 0.000000
							CHANNELS 3 Xrotation Yrotation Zrotation
							JOINT LeftShoulder
							{
								OFFSET 6.197800 13.665199 -4.064700
								CHANNELS 3 Xrotation Yrotation Zrotation
								JOINT LeftArm
								{
									OFFSET 7.778100 -0.187103 -1.709300
									CHANNELS 3 Xrotation Yrotation Zrotation
									JOINT LeftForeArm
									{
										OFFSET 22.049376 0.000000 0.000000
										CHANNELS 3 Xrotation Yrotation Zrotation
										JOINT LeftHand
										{
											OFFSET 23.009392 0.000000 0.000000
											CHANNELS 3 Xrotation Yrotation Zrotation
											End Site
											{
												OFFSET 0 0 0
											}
										}
									}
								}
							}
						}
						JOINT RightShoulder_virtual
						{
							OFFSET 0.000000 0.000000 0.000000
							CHANNELS 3 Xrotation Yrotation Zrotation
							JOINT RightShoulder
							{
								OFFSET -6.197800 13.665199 -4.064700
								CHANNELS 3 Xrotation Yrotation Zrotation
								JOINT RightArm
								{
									OFFSET -7.778100 -0.187103 -1.709300
									CHANNELS 3 Xrotation Yrotation Zrotation
									JOINT RightForeArm
									{
										OFFSET -22.049376 0.000000 0.000000
										CHANNELS 3 Xrotation Yrotation Zrotation
										JOINT RightHand
										{
											OFFSET -23.009392 0.000000 0.000000
											CHANNELS 3 Xrotation Yrotation Zrotation
											End Site
											{
												OFFSET 0 0 0
											}
										}
									}
								}
							}
						}
					}
				}
			}
		}
	}
}
MOTION
Frames: 13
Frame Time: 0.03333333
-0.269650 70.610130 0.112753 0.000000 0.000000 0.000000 -5.289866 -45.102393 0.009350 -32.843456 7.601275 17.499488 59.220397 -6.566103 4.270684 -23.771696 -8.053143 -14.613731 0.000000 0.000000 0.000000 -5.289866 -45.102393 0.009350 -25.065017 -10.545384 -28.270506 58.419865 -9.124009 -7.671184 -25.367444 -6.319627 22.025827 0.000000 0.000000 0.000000 -5.289866 -45.102393 0.009350 0.000000 0.000003 0.000000 9.464569 7.182592 -1.715500 2.187716 0.989896 -0.915631 0.000000 0.000000 0.000000 2.202830 0.982773 -0.894152 0.084655 13.220547 4.538681 0.000000 0.000000 0.000000 2.202830 0.982773 -0.894152 1.117180 3.546352 -8.633310 -53.487010 4.935504 -51.503004 -179.999691 -73.641938 -179.999677 0.000000 0.000000 0.000000 2.202830 0.982773 -0.894152 3.036127 13.027198 -5.371408 -48.713736 27.172815 83.457084 -179.999568 74.011711 179.999568 0.000000 0.000000 0.000000 
-0.291395 70.516579 -0.115429 0.000000 0.000000 0.000000 -5.394655 -45.367769 -0.059407 -33.371563 7.313640 17.612631 59.896490 -6.428298 4.370665 -22.867521 -7.945439 -14.741497 0.000000 0.000000 0.000000 -5.394655 -45.367769 -0.059407 -25.450820 -10.532219 -28.233372 58.841499 -8.754268 -7.800398 -25.578575 -6.328816 22.090756 0.000000 0.000000 0.000000 -5.394655 -45.367769 -0.059407 0.000000 0.000001 0.000000 9.478785 7.273313 -1.577148 2.190248 1.012036 -0.889779 0.000000 0.000000 0.000000 2.204671 1.005821 -0.868759 0.085771 13.245574 4.386415 0.000000 0.000000 0.000000 2.204671 1.005821 -0.868759 1.115725 3.626834 -8.693359 -53.153652 4.985195 -51.684352 -179.999841 -73.464750 -179.999855 0.000000 0.000000 0.000000 2.204671 1.005821 -0.868759 3.033765 13.290781 -5.488889 -48.445569 26.967619 82.836439 179.999937 73.782743 -179.999950 0.000000 0.000000 0.000000 
-0.287695 70.415466 -0.315453 0.000000 0.000000 0.000000 -5.526139 -45.657854 -0.159829 -33.894291 7.003197 17.731349 60.649307 -6.222786 4.419555 -21.961471 -7.923425 -14.844930 0.000000 0.000000 0.000000 -5.526139 -45.657854 -0.159829 -25.883419 -10.550194 -28.205534 59.300870 -8.353744 -7.977236 -25.794059 -6.321267 22.040054 0.000000 0.000000 0.000000 -5.526139 -45.657854 -0.159829 0.000000 0.000001 -0.000001 9.512760 7.337277 -1.426936 2.197573 1.027108 -0.862104 0.000000 0.000000 0.000000 2.211432 1.021839 -0.841508 0.080985 13.269759 4.242636 0.000000 0.000000 0.000000 2.211432 1.021839 -0.841508 1.116596 3.696293 -8.750942 -52.843039 5.031859 -51.853444 -179.999732 -73.327654 -179.999759 0.000000 0.000000 0.000000 2.211432 1.021839 -0.841508 3.025580 13.532519 -5.623950 -48.207765 26.760172 82.252997 -179.999937 73.525757 179.999950 0.000000 0.000000 0.000000 
-0.260604 70.306931 -0.479744 0.000000 0.000000 0.000000 -5.686167 -45.964578 -0.289337 -34.428573 6.683021 17.828402 61.505232 -6.018332 4.454777 -21.018582 -7.913859 -14.895854 0.000000 0.000000 0.000000 -5.686167 -45.964578 -0.289337 -26.326196 -10.585681 -28.196667 59.766320 -7.916420 -8.190908 -26.002826 -6.306037 21.938812 0.000000 0.000000 0.000000 -5.686167 -45.964578 -0.289337 0.000000 -0.000002 0.000000 9.562059 7.374259 -1.273083 2.208616 1.035252 -0.834414 0.000000 0.000000 0.000000 2.222026 1.030872 -0.814189 0.077829 13.290484 4.114899 0.000000 0.000000 0.000000 2.222026 1.030872 -0.814189 1.119849 3.753402 -8.805219 -52.554802 5.073441 -52.013103 -180.000005 -73.232414 -179.999991 0.000000 0.000000 0.000000 2.222026 1.030872 -0.814189 3.012409 13.754819 -5.753861 -47.992348 26.566311 81.688871 179.999786 73.243759 -179.999814 0.000000 0.000000 0.000000 
-0.212836 70.191254 -0.601841 0.000000 0.000000 0.000000 -5.875414 -46.278404 -0.443836 -34.976705 6.359937 17.903036 62.471991 -5.820805 4.463742 -20.020761 -7.903570 -14.879301 0.000000 0.000000 0.000000 -5.875414 -46.278404 -0.443836 -26.744477 -10.624949 -28.212831 60.208712 -7.441303 -8.433397 -26.195324 -6.292995 21.848759 0.000000 0.000000 0.000000 -5.875414 -46.278404 -0.443836 0.000000 -0.000001 0.000001 9.622661 7.386763 -1.121384 2.222426 1.037146 -0.807830 0.000000 0.000000 0.000000 2.235497 1.033574 -0.787906 0.080271 13.306643 4.005493 0.000000 0.000000 0.000000 2.235497 1.033574 -0.787906 1.125278 3.798844 -8.856253 -52.285904 5.109663 -52.166055 179.999991 -73.175075 -179.999991 0.000000 0.000000 0.000000 2.235497 1.033574 -0.787906 2.994923 13.960744 -5.866395 -47.791045 26.394192 81.130927 -179.999855 72.940451 179.999841 0.000000 0.000000 0.000000 
-0.146465 70.065590 -0.677866 0.000000 0.000000 0.000000 -6.092591 -46.589776 -0.624323 -35.555619 6.015670 17.960537 63.552349 -5.622242 4.449142 -18.943178 -7.962938 -14.806100 0.000000 0.000000 0.000000 -6.092591 -46.589776 -0.624323 -27.135419 -10.674564 -28.260005 60.631302 -6.927869 -8.704429 -26.376261 -6.284440 21.779071 0.000000 0.000000 0.000000 -6.092591 -46.589776 -0.624323 0.000000 0.000002 0.000000 9.693840 7.360896 -0.970169 2.238805 1.029236 -0.782529 0.000000 0.000000 0.000000 2.251669 1.026491 -0.762820 0.092912 13.314987 3.924472 0.000000 0.000000 0.000000 2.251669 1.026491 -0.762820 1.135837 3.825111 -8.907140 -52.040482 5.140148 -52.308307 -179.999841 -73.154973 -179.999841 0.000000 0.000000 0.000000 2.251669 1.026491 -0.762820 2.971308 14.140693 -5.939888 -47.612361 26.273009 80.576247 -179.999950 72.615648 179.999950 0.000000 0.000000 0.000000 
-0.063550 69.926842 -0.709099 0.000000 0.000000 0.000000 -6.334267 -46.891694 -0.832002 -36.196376 5.605850 18.011229 64.767788 -5.417905 4.407524 -17.718843 -8.148014 -14.725473 0.000000 0.000000 0.000000 -6.334267 -46.891694 -0.832002 -27.499571 -10.741346 -28.342107 61.035294 -6.361552 -9.003393 -26.551184 -6.282733 21.748658 0.000000 0.000000 0.000000 -6.334267 -46.891694 -0.832002 0.000000 0.000002 0.000000 9.770921 7.289415 -0.781088 2.257127 1.009194 -0.750956 0.000000 0.000000 0.000000 2.269900 1.007367 -0.731402 0.084700 13.322993 3.842697 0.000000 0.000000 0.000000 2.269900 1.007367 -0.731402 1.163462 3.821056 -8.986286 -51.810690 5.177633 -52.410097 179.999991 -73.065607 -179.999991 0.000000 0.000000 0.000000 2.269900 1.007367 -0.731402 2.943686 14.300188 -6.058949 -47.450605 26.165217 80.055151 -179.999855 72.262315 179.999868 0.000000 0.000000 0.000000 
0.032973 69.775444 -0.703701 0.000000 0.000000 0.000000 -6.595487 -47.181297 -1.064093 -36.884688 5.139763 18.132749 66.063161 -5.303555 4.332077 -16.412813 -8.396003 -14.888598 0.000000 0.000000 0.000000 -6.595487 -47.181297 -1.064093 -27.842228 -10.818158 -28.444644 61.431896 -5.776805 -9.328643 -26.718998 -6.289554 21.751294 0.000000 0.000000 0.000000 -6.595487 -47.181297 -1.064093 0.000000 0.000001 0.000000 9.864846 7.196158 -0.565391 2.279006 0.983008 -0.714939 0.000000 0.000000 0.000000 2.291741 0.982156 -0.695486 0.068996 13.329611 3.761810 0.000000 0.000000 0.000000 2.291741 0.982156 -0.695486 1.198654 3.800241 -9.075614 -51.593285 5.199230 -52.492671 -179.999745 -72.963728 -179.999745 0.000000 0.000000 0.000000 2.291741 0.982156 -0.695486 2.907890 14.413183 -6.191885 -47.333464 26.070451 79.579982 179.999991 71.906565 179.999991 0.000000 0.000000 0.000000 
0.149347 69.610527 -0.648705 0.000000 0.000000 0.000000 -6.886461 -47.449150 -1.327541 -37.604542 4.668846 18.335942 67.405641 -5.278864 4.206644 -15.081807 -8.750309 -15.220629 0.000000 0.000000 0.000000 -6.886461 -47.449150 -1.327541 -28.145208 -10.890423 -28.567317 61.817986 -5.212708 -9.679889 -26.868641 -6.306585 21.787614 0.000000 0.000000 0.000000 -6.886461 -47.449150 -1.327541 0.000000 0.000000 0.000000 9.998652 7.092292 -0.328029 2.308900 0.953279 -0.674971 0.000000 0.000000 0.000000 2.321654 0.953459 -0.655527 0.043459 13.333718 3.685102 0.000000 0.000000 0.000000 2.321654 0.953459 -0.655527 1.234247 3.772986 -9.161641 -51.384859 5.170395 -52.573537 -179.999855 -72.884976 -179.999841 0.000000 0.000000 0.000000 2.321654 0.953459 -0.655527 2.852592 14.410079 -6.345796 -47.309889 25.994139 79.222661 -179.999909 71.582029 179.999896 0.000000 0.000000 0.000000 
0.285150 69.435402 -0.560556 0.000000 0.000000 0.000000 -7.206845 -47.717522 -1.629791 -38.313058 4.198814 18.602351 68.739611 -5.304344 4.064894 -13.754327 -9.242392 -15.656387 0.000000 0.000000 0.000000 -7.206845 -47.717522 -1.629791 -28.427606 -10.935888 -28.754427 62.222081 -4.615489 -9.943108 -27.017971 -6.289076 21.797541 0.000000 0.000000 0.000000 -7.206845 -47.717522 -1.629791 0.000000 0.000000 0.000000 10.144752 6.984146 -0.066621 2.341062 0.921894 -0.630605 0.000000 0.000000 0.000000 2.353843 0.923200 -0.611160 0.029822 13.337607 3.596845 0.000000 0.000000 0.000000 2.353843 0.923200 -0.611160 1.277229 3.725607 -9.254906 -51.201171 5.133869 -52.625644 180.000005 -72.825048 -179.999991 0.000000 0.000000 0.000000 2.353843 0.923200 -0.611160 2.796419 14.406319 -6.472247 -47.298876 25.913509 78.850661 -179.999855 71.251044 179.999868 0.000000 0.000000 0.000000 
0.437013 69.240631 -0.421041 0.000000 0.000000 0.000000 -7.541839 -47.987062 -1.965701 -39.115319 3.628561 18.992611 70.185152 -5.503182 3.929779 -12.241246 -9.821885 -16.604494 0.000000 0.000000 0.000000 -7.541839 -47.987062 -1.965701 -28.684882 -10.895070 -29.110328 62.691001 -3.942239 -9.944101 -27.200214 -6.183290 21.678723 0.000000 0.000000 0.000000 -7.541839 -47.987062 -1.965701 0.000000 -0.000001 0.000000 10.282722 6.876963 0.227037 2.371354 0.890422 -0.581115 0.000000 0.000000 0.000000 2.384087 0.893096 -0.561743 0.058554 13.343935 3.471462 0.000000 0.000000 0.000000 2.384087 0.893096 -0.561743 1.334706 3.639710 -9.362892 -51.060251 5.134134 -52.617223 -179.999691 -72.790644 -179.999691 0.000000 0.000000 0.000000 2.384087 0.893096 -0.561743 2.758137 14.518095 -6.511337 -47.260551 25.787562 78.332701 -179.999855 70.883369 179.999855 0.000000 0.000000 0.000000 
0.599964 69.044083 -0.235027 0.000000 0.000000 0.000000 -7.879211 -48.285595 -2.311622 -39.860629 3.074467 19.422963 71.543486 -5.709524 3.801567 -10.742342 -10.644528 -17.582773 0.000000 0.000000 0.000000 -7.879211 -48.285595 -2.311622 -28.937073 -10.835514 -29.491958 63.128440 -3.291259 -9.951365 -27.358796 -6.029545 21.554045 0.000000 0.000000 0.000000 -7.879211 -48.285595 -2.311622 0.000000 -0.000003 0.000000 10.415859 6.783111 0.521894 2.400597 0.862075 -0.530231 0.000000 0.000000 0.000000 2.413310 0.866094 -0.510962 0.101154 13.351930 3.342040 0.000000 0.000000 0.000000 2.413310 0.866094 -0.510962 1.398954 3.539608 -9.481164 -50.951565 5.131711 -52.581426 -179.999950 -72.784941 -179.999950 0.000000 0.000000 0.000000 2.413310 0.866094 -0.510962 2.725851 14.672339 -6.503154 -47.199811 25.663032 77.755775 -179.999868 70.487218 179.999868 0.000000 0.000000 0.000000 
0.769359 68.861458 -0.006962 0.000000 0.000000 0.000000 -8.210782 -48.649918 -2.646388 -40.491800 2.657824 19.775197 72.941093 -5.697913 3.709065 -9.904756 -11.821537 -17.787884 0.000000 0.000000 0.000000 -8.210782 -48.649918 -2.646388 -29.195384 -10.730255 -29.882484 63.522105 -2.667175 -9.963421 -27.480213 -5.832988 21.370405 0.000000 0.000000 0.000000 -8.210782 -48.649918 -2.646388 0.000000 0.000001 0.000000 10.543668 6.735559 0.790274 2.429081 0.845229 -0.481176 0.000000 0.000000 0.000000 2.441856 0.850237 -0.462065 0.143826 13.359059 3.231960 0.000000 0.000000 0.000000 2.441856 0.850237 -0.462065 1.471503 3.437380 -9.623564 -50.879527 5.105818 -52.547019 179.999896 -72.823846 179.999896 0.000000 0.000000 0.000000 2.441856 0.850237 -0.462065 2.700742 14.876126 -6.457028 -47.075726 25.555025 77.105090 179.999882 70.030107 -179.999868 0.000000 0.000000 0.000000 
